<?xml version="1.0" encoding="utf-8"?>
<!-- Generator: Adobe Illustrator 17.0.0, SVG Export Plug-In . SVG Version: 6.00 Build 0)  -->
<!DOCTYPE svg PUBLIC "-//W3C//DTD SVG 1.1//EN" "http://www.w3.org/Graphics/SVG/1.1/DTD/svg11.dtd">
<svg version="1.1" id="Layer_1" xmlns="http://www.w3.org/2000/svg" xmlns:xlink="http://www.w3.org/1999/xlink" x="0px" y="0px"
	 width="366.471px" height="287.869px" viewBox="109 188.613 366.471 287.869" enable-background="new 109 188.613 366.471 287.869"
	 xml:space="preserve">
<g>
	<rect x="109.5" y="289.982" fill="#999999" stroke="#999999" stroke-miterlimit="10" width="159" height="99"/>
	<rect x="109.5" y="394.982" fill="#999999" stroke="#999999" stroke-miterlimit="10" width="336" height="13"/>
	<rect x="392.5" y="317.982" fill="#999999" stroke="#999999" stroke-miterlimit="10" width="37" height="77"/>
	<path fill="#999999" stroke="#999999" stroke-miterlimit="10" d="M474,259.991c-0.43,0.391-0.951,0.63-1.49,0.721
		c-0.279,7.5-1.82,14.67-4.41,21.319c0.41,0.16,0.791,0.42,1.11,0.771c1.09,1.22,1,3.09-0.21,4.189
		c-0.93,0.84-2.24,0.99-3.301,0.471c-3.209,6.46-7.439,12.31-12.479,17.35c1.079,1.22,0.989,3.08-0.221,4.18
		c-1.21,1.09-3.07,1.01-4.17-0.18c-11.46,9.57-26.211,15.33-42.301,15.33c-36.469,0-66.059-29.561-66.059-66.03
		c0-17.12,6.529-32.729,17.229-44.46c-0.979-1.21-0.859-3,0.311-4.06c1.1-0.99,2.74-1.011,3.85-0.12
		c4.91-4.51,10.5-8.29,16.601-11.15c-0.71-1.189-0.521-2.76,0.55-3.729c1.221-1.101,3.1-1,4.2,0.21c0.33,0.37,0.56,0.81,0.66,1.26
		c6.17-2.26,12.759-3.61,19.63-3.92v-0.07c0-1.63,1.359-2.96,3-2.96s3,1.33,3,2.96v0.07c6.54,0.29,12.83,1.53,18.74,3.59
		c0.16-0.42,0.42-0.81,0.77-1.14c1.221-1.101,3.1-1,4.2,0.21c0.79,0.88,0.96,2.109,0.53,3.13c6.43,2.899,12.309,6.81,17.439,11.52
		c1.221-0.95,2.98-0.81,4.03,0.351c0.979,1.1,1.011,2.72,0.12,3.83c4.199,4.59,7.75,9.779,10.52,15.42
		c1.131-0.471,2.49-0.21,3.36,0.75c1.09,1.22,1,3.09-0.21,4.189c-0.24,0.21-0.5,0.38-0.779,0.5c2.439,6.38,3.93,13.23,4.27,20.38
		c0.639,0.101,1.25,0.41,1.72,0.931C475.3,257.021,475.21,258.891,474,259.991z"/>
	<rect x="109.5" y="412.982" fill="#999999" stroke="#999999" stroke-miterlimit="10" width="336" height="59"/>
	<path fill="#39B54A" stroke="#39B54A" stroke-miterlimit="10" d="M459.5,254.102c0,15.16-7.76,28.51-19.529,36.3l-0.021,0.021
		l-150.1,103.209c-17.76,14.59-40.5,23.34-65.279,23.34c-56.85,0-102.941-46.09-102.941-102.94s46.092-102.939,102.941-102.939
		L416,210.602C440.02,210.602,459.5,230.071,459.5,254.102z"/>
	<path fill="#CCCCCC" stroke="#CCCCCC" stroke-width="5" stroke-miterlimit="10" d="M445.443,257.068
		c0,13.899-7.113,26.138-17.903,33.279l-0.019,0.02L289.908,384.99c-16.281,13.376-37.129,21.397-59.847,21.397
		c-52.12,0-94.376-42.256-94.376-94.375c0-52.121,42.256-94.376,94.376-94.376l175.501-0.449
		C427.584,217.186,445.443,235.037,445.443,257.068z"/>
	<rect x="109.5" y="471.982" fill="#333333" stroke="#333333" stroke-miterlimit="10" width="336" height="4"/>
</g>
</svg>
