<?xml version="1.0" encoding="utf-8"?>
<!-- Generator: Adobe Illustrator 17.0.0, SVG Export Plug-In . SVG Version: 6.00 Build 0)  -->
<!DOCTYPE svg PUBLIC "-//W3C//DTD SVG 1.1//EN" "http://www.w3.org/Graphics/SVG/1.1/DTD/svg11.dtd">
<svg version="1.1" id="Layer_1" xmlns="http://www.w3.org/2000/svg" xmlns:xlink="http://www.w3.org/1999/xlink" x="0px" y="0px"
	 width="407.456px" height="287.868px" viewBox="422 -344.868 407.456 287.868"
	 enable-background="new 422 -344.868 407.456 287.868" xml:space="preserve">
<g>
	<rect x="457.167" y="-243.5" fill="#999999" stroke="#999999" stroke-miterlimit="10" width="145.333" height="99"/>
	<rect x="422.5" y="-120.5" fill="#999999" stroke="#999999" stroke-miterlimit="10" width="377" height="59"/>
	<rect x="422.5" y="-138.5" fill="#999999" stroke="#999999" stroke-miterlimit="10" width="377" height="13"/>
	<rect x="746.5" y="-215.5" fill="#999999" stroke="#999999" stroke-miterlimit="10" width="37" height="77"/>
	<path fill="#999999" stroke="#999999" stroke-miterlimit="10" d="M827.985-273.49c-0.43,0.391-0.95,0.63-1.49,0.721
		c-0.279,7.5-1.82,14.67-4.409,21.319c0.409,0.16,0.791,0.42,1.109,0.771c1.09,1.22,1,3.09-0.21,4.189
		c-0.93,0.84-2.241,0.99-3.3,0.471c-3.211,6.46-7.441,12.31-12.479,17.35c1.079,1.22,0.989,3.08-0.221,4.18
		c-1.21,1.09-3.069,1.01-4.171-0.18c-11.459,9.57-26.209,15.33-42.301,15.33c-36.469,0-66.059-29.561-66.059-66.03
		c0-17.12,6.53-32.729,17.23-44.46c-0.979-1.21-0.86-3,0.31-4.06c1.099-0.99,2.739-1.011,3.85-0.12
		c4.91-4.51,10.5-8.29,16.601-11.15c-0.711-1.189-0.521-2.76,0.55-3.729c1.221-1.101,3.099-1,4.2,0.21
		c0.33,0.37,0.566,0.81,0.668,1.26c6.17-2.26,12.637-3.61,19.637-3.92v-0.07c0-1.63,1.359-2.96,3-2.96s3,1.33,3,2.96v0.07
		c7,0.29,12.822,1.53,18.732,3.59c0.16-0.42,0.417-0.81,0.768-1.14c1.22-1.101,3.097-1,4.197,0.21
		c0.789,0.88,0.959,2.109,0.529,3.13c6.43,2.899,12.309,6.81,17.439,11.52c1.221-0.95,2.979-0.81,4.029,0.351
		c0.979,1.1,1.011,2.72,0.119,3.83c4.199,4.59,7.751,9.779,10.521,15.42c1.129-0.471,2.488-0.21,3.359,0.75
		c1.09,1.22,1,3.09-0.21,4.189c-0.241,0.21-0.5,0.38-0.779,0.5c2.439,6.38,3.93,13.23,4.269,20.38
		c0.641,0.101,1.251,0.41,1.721,0.931C829.285-276.46,829.195-274.59,827.985-273.49z"/>
	<path fill="#666666" stroke="#666666" stroke-miterlimit="10" d="M813.485-279.38c0,15.16-7.76,28.51-19.53,36.3l-0.02,0.021
		l-150.1,103.21c-17.761,14.59-40.5,23.34-65.28,23.34c-56.85,0-102.94-46.09-102.94-102.94s46.091-102.939,102.94-102.939
		l191.43-0.49C794.004-322.88,813.485-303.41,813.485-279.38z"/>
	<path fill="#CCCCCC" stroke="#CCCCCC" stroke-width="5" stroke-miterlimit="10" d="M799.43-276.414
		c0,13.899-7.115,26.138-17.904,33.279l-0.019,0.02l-137.612,94.623c-16.283,13.376-37.13,21.397-59.848,21.397
		c-52.121,0-94.376-42.256-94.376-94.375c0-52.121,42.255-94.376,94.376-94.376l175.502-0.449
		C781.569-316.295,799.43-298.444,799.43-276.414z"/>
	<rect x="422.5" y="-61.5" fill="#333333" stroke="#333333" stroke-miterlimit="10" width="377" height="4"/>
</g>
</svg>
