<?xml version="1.0" encoding="utf-8"?>
<!-- Generator: Adobe Illustrator 17.0.0, SVG Export Plug-In . SVG Version: 6.00 Build 0)  -->
<!DOCTYPE svg PUBLIC "-//W3C//DTD SVG 1.1//EN" "http://www.w3.org/Graphics/SVG/1.1/DTD/svg11.dtd">
<svg version="1.1" id="Layer_1" xmlns="http://www.w3.org/2000/svg" xmlns:xlink="http://www.w3.org/1999/xlink" x="0px" y="0px"
	 width="1824px" height="441px" viewBox="3 -493.475 1824 441" enable-background="new 3 -493.475 1824 441" xml:space="preserve">
<g>
	<rect x="3.5" y="-84.975" fill="#333333" stroke="#333333" stroke-miterlimit="10" width="1823" height="32"/>
	<rect x="69.5" y="-492.975" fill="#808080" stroke="#808080" stroke-miterlimit="10" width="1697" height="408"/>
	<rect x="109.5" y="-423.975" fill="#999999" stroke="#999999" stroke-miterlimit="10" width="1473" height="11"/>
	<rect x="109.5" y="-492.975" fill="#999999" stroke="#999999" stroke-miterlimit="10" width="11" height="80"/>
	<rect x="109.5" y="-412.975" fill="#999999" stroke="#999999" stroke-miterlimit="10" width="11" height="142"/>
	<path fill="#999999" stroke="#999999" stroke-miterlimit="10" d="M128.485-419.975c0,5.522-4.735,10-10.577,10h-3.846
		c-5.842,0-10.577-4.478-10.577-10l0,0c0-5.522,4.735-10,10.577-10h3.846C123.75-429.975,128.485-425.497,128.485-419.975
		L128.485-419.975z"/>
	<rect x="1706.5" y="-437.975" fill="#999999" stroke="#999999" stroke-miterlimit="10" width="12" height="10"/>
	<rect x="1682.5" y="-452.975" fill="#999999" stroke="#999999" stroke-miterlimit="10" width="4" height="37"/>
	<rect x="1682.5" y="-452.975" fill="#999999" stroke="#999999" stroke-miterlimit="10" width="32" height="4"/>
	<rect x="1710.5" y="-452.975" fill="#999999" stroke="#999999" stroke-miterlimit="10" width="4" height="19"/>
	<path fill="#999999" stroke="#999999" stroke-miterlimit="10" d="M1731.5-270.975v26c0,6.63-5.385,12-12.015,12h-0.985v144h-12
		v-144c-7,0-12-5.37-12-12v-26c0-4.85,3-9.02,7-10.92v-146.08h22v145.69C1728.5-280.645,1731.5-276.205,1731.5-270.975z"/>
	<rect x="1689.5" y="-88.975" fill="#333333" stroke="#333333" stroke-miterlimit="10" width="47" height="4"/>
	<rect x="1582.5" y="-418.975" fill="#999999" stroke="#999999" stroke-miterlimit="10" width="104" height="6"/>
</g>
<rect x="78.5" y="-270.975" fill="#999999" stroke="#999999" stroke-miterlimit="10" width="42" height="99"/>
<rect x="78.5" y="-165.975" fill="#999999" stroke="#999999" stroke-miterlimit="10" width="42" height="13"/>
<rect x="78.5" y="-147.975" fill="#999999" stroke="#999999" stroke-miterlimit="10" width="42" height="59"/>
<rect x="57.5" y="-88.975" fill="#333333" stroke="#333333" stroke-miterlimit="10" width="63" height="4"/>
</svg>
