<?xml version="1.0" encoding="utf-8"?>
<!-- Generator: Adobe Illustrator 17.0.0, SVG Export Plug-In . SVG Version: 6.00 Build 0)  -->
<!DOCTYPE svg PUBLIC "-//W3C//DTD SVG 1.1//EN" "http://www.w3.org/Graphics/SVG/1.1/DTD/svg11.dtd">
<svg version="1.1" id="Layer_1" xmlns="http://www.w3.org/2000/svg" xmlns:xlink="http://www.w3.org/1999/xlink" x="0px" y="0px"
	 width="200.001px" height="365px" viewBox="925.5 -386.089 200.001 365" enable-background="new 925.5 -386.089 200.001 365"
	 xml:space="preserve">
<g>
	<g>
		<path fill="#999999" stroke="#999999" stroke-width="5" stroke-miterlimit="10" d="M1123-354.649v94.119
			c0,5.49-4.451,9.94-9.94,9.94h-117.12c-5.489,0-9.939-4.45-9.939-9.94v-94.119c0-5.49,4.45-9.94,9.939-9.94h43.301
			c-3.111,1.57-5.24,4.78-5.24,8.5c0.04,3.42,5.88,8.79,9.5,9.5c7.129,2.54,14.92,2.29,21,0c5.96-2.83,9.5-7,9.5-9.5
			c0-3.72-2.13-6.93-5.24-8.5h44.3C1118.55-364.589,1123-360.139,1123-354.649z"/>
		<path fill="#808080" stroke="#808080" stroke-width="5" stroke-miterlimit="10" d="M1112-267.943c0,4.614-3.74,8.354-8.354,8.354
			h-98.292c-4.613,0-8.354-3.74-8.354-8.354v-79.292c0-4.614,3.74-8.354,8.354-8.354h98.292c4.614,0,8.354,3.74,8.354,8.354
			V-267.943z"/>
		<rect x="1048" y="-345.589" fill="#999999" stroke="#999999" stroke-miterlimit="10" width="12" height="170"/>
		
			<rect x="1010.001" y="-333.589" fill="#C8C8C8" stroke="#C8C8C8" stroke-width="5" stroke-miterlimit="10" width="88" height="72"/>
		<rect x="1052" y="-333.589" fill="#808080" stroke="#808080" stroke-miterlimit="10" width="5" height="72"/>
		<rect x="1092" y="-333.589" fill="#808080" stroke="#808080" stroke-miterlimit="10" width="4" height="72"/>
		<rect x="1012.001" y="-333.589" fill="#808080" stroke="#808080" stroke-miterlimit="10" width="4" height="72"/>
		<path fill="#999999" stroke="#999999" stroke-width="5" stroke-miterlimit="10" d="M1074-356.089c0,2.5-3.54,6.67-9.5,9.5
			c-6.08,2.29-13.871,2.54-21,0c-3.62-0.71-9.46-6.08-9.5-9.5c0-3.72,2.129-6.93,5.24-8.5c1.14-0.57,2.42-0.92,3.76-0.99v-7.01
			c0-6.08,4.92-11,11-11c3.04,0,5.79,1.23,7.779,3.22c1.99,1.99,3.221,4.74,3.221,7.78v7.01c1.34,0.07,2.619,0.42,3.76,0.99
			C1071.871-363.019,1074-359.809,1074-356.089z"/>
		<rect x="1027.5" y="-245.089" fill="none" stroke="#999999" stroke-width="8" stroke-miterlimit="10" width="53" height="25"/>
		<path fill="#999999" stroke="#999999" stroke-miterlimit="10" d="M1086-216.859v3.27h4v22h-12v13h6v6h-6v7h-4v-7h-3.361
			c-0.879,4.19-3.289,7.81-6.639,10.24v136.76h-20v-136.76c-2.81-2.04-4.951-4.9-6.09-8.24H1034v5h-4v-5h-85.21
			c-1.62,1.84-3.99,3-6.64,3h-3.301c-4.89,0-8.85-3.96-8.85-8.85v-0.301c0-3.51,2.04-6.54,5-7.97v-169.879h11v169.88
			c1.45,0.7,2.68,1.78,3.549,3.12H1030v-10h-12v-22h4v-3.27c-2.32-0.74-4-2.91-4-5.48v-10.5c0-3.18,2.57-5.75,5.75-5.75h0.5
			c3.18,0,5.75,2.57,5.75,5.75v10.5c0,2.57-1.68,4.74-4,5.48v3.27h4v11h4v21h3.92c2.271-6.69,8.62-11.5,16.08-11.5
			c8.54,0,15.61,6.3,16.81,14.5h3.19v-24h4v-11h4v-3.27c-2.32-0.74-4-2.91-4-5.48v-10.5c0-3.18,2.57-5.75,5.75-5.75h0.5
			c3.18,0,5.75,2.57,5.75,5.75v10.5C1090-219.769,1088.321-217.599,1086-216.859z"/>
	</g>
	<rect x="1031" y="-25.589" fill="#333333" stroke="#333333" stroke-miterlimit="10" width="47" height="4"/>
</g>
</svg>
